PathFileType	4	(X/Y/Z)	./resultDataOpenSim/trcMotMarkerGrf/sub10/qtm-05-03.trc
DataRate	CameraRate	NumFrames	NumMarkers	Units	OrigDataRate	OrigDataStartFrame	OrigNumFrames
250.000000	250.000000	12	24	m	250.000000	193	513
Frame#	Time	L.Toe.Tip			R.Toe.Tip			L.Ankle.Lat			R.Ankle.Lat			L.Ankle.Med			R.Ankle.Med			L.Heel			R.Heel			L.Knee.Lat			R.Knee.Lat			L.Knee.Med			R.Knee.Med			L.Thigh.Upper			R.Thigh.Upper			L.ASIS			R.ASIS			V.Sacral			L.Acromium			R.Acromium			C7			L.Elbow			R.Elbow			L.Wrist.Lat			R.Wrist.Lat
		X1	Y1	Z1	X2	Y2	Z2	X3	Y3	Z3	X4	Y4	Z4	X5	Y5	Z5	X6	Y6	Z6	X7	Y7	Z7	X8	Y8	Z8	X9	Y9	Z9	X10	Y10	Z10	X11	Y11	Z11	X12	Y12	Z12	X13	Y13	Z13	X14	Y14	Z14	X15	Y15	Z15	X16	Y16	Z16	X17	Y17	Z17	X18	Y18	Z18	X19	Y19	Z19	X20	Y20	Z20	X21	Y21	Z21	X22	Y22	Z22	X23	Y23	Z23	X24	Y24	Z24

193	0.768	0.037034468	-0.058261976	-0.12604497	-0.73525253	0.037367833	-0.020613355	-0.092514297	-0.027863095	-0.18063934	-0.7980866	0.16309506	0.0040545808	-0.098468072	-0.0036624956	-0.098256422	-0.7523227	0.14945544	-0.069715703	-0.16399422	-0.049856104	-0.14524395	-0.83986027	0.18167451	-0.052936532	-0.028611813	0.35540361	-0.20210692	-0.45774025	0.35909857	0.049756051	-0.033272225	0.33497039	-0.081057355	-0.41092479	0.32981834	-0.066415636	-0.15355699	0.71909591	-0.26971151	-0.32373417	0.72976465	0.089065124	-0.13111135	0.81762373	-0.18335576	-0.21016524	0.80902136	0.044636517	-0.36164684	0.83379351	-0.13967556	-0.28921301	1.2897819	-0.26550175	-0.28803373	1.2876191	0.060419993	-0.37509761	1.3073991	-0.10904121	-0.4178006	0.98051966	-0.3342974	-0.28751098	0.92601479	0.11364607	-0.36032358	0.75621526	-0.40133053	-0.05028537	0.84584734	0.12595335
194	0.772	0.037127439	-0.058340897	-0.12596676	-0.73236797	0.038098849	-0.020659057	-0.092126198	-0.027932719	-0.18031934	-0.78906692	0.16790642	0.0043863831	-0.098216528	-0.0038072635	-0.097927462	-0.74297361	0.15239354	-0.068744007	-0.16397563	-0.049820217	-0.14500286	-0.82926226	0.18850535	-0.052224439	-0.023173254	0.35462723	-0.20144403	-0.44562526	0.35656072	0.051483972	-0.030134028	0.33378285	-0.080592613	-0.39748868	0.32517489	-0.064674167	-0.14673604	0.71947372	-0.2703341	-0.31553275	0.72732215	0.088881146	-0.12486527	0.81744622	-0.18438171	-0.20265019	0.80755873	0.042927874	-0.3547294	0.83283738	-0.13957668	-0.28240961	1.2891314	-0.26616355	-0.28088607	1.2871608	0.059760843	-0.36818622	1.3068853	-0.10956127	-0.40947099	0.9792054	-0.33476796	-0.28237335	0.92553297	0.11261833	-0.35123036	0.75519125	-0.40238838	-0.046269405	0.84282201	0.12683943
195	0.776	0.037189649	-0.058419282	-0.12591201	-0.72874895	0.039486113	-0.020785479	-0.091784264	-0.028010646	-0.18000246	-0.77972077	0.17268983	0.0047317456	-0.09794555	-0.0039256979	-0.097598399	-0.73339729	0.15555069	-0.067846106	-0.16397301	-0.049782463	-0.14475106	-0.81824547	0.19532812	-0.05156417	-0.018121451	0.35387668	-0.20089316	-0.43330725	0.35383171	0.053309348	-0.026984518	0.33272481	-0.080218616	-0.38376342	0.32043027	-0.06287493	-0.14010405	0.71998674	-0.27095962	-0.30747293	0.72488861	0.088636592	-0.1187899	0.81738391	-0.1853728	-0.19529232	0.80621541	0.041220691	-0.34764056	0.83180196	-0.13988049	-0.27554648	1.2885935	-0.26678326	-0.2737725	1.2867994	0.059096132	-0.36126745	1.3064831	-0.11009897	-0.40116151	0.97800242	-0.33512587	-0.27729766	0.92522491	0.11170784	-0.3419771	0.75431725	-0.40340037	-0.042440946	0.83978888	0.12771854
196	0.78	0.0371935	-0.058500168	-0.1259184	-0.72447373	0.041543932	-0.020895995	-0.091462449	-0.028114485	-0.17971782	-0.76996024	0.17750745	0.005098017	-0.097711982	-0.0040348591	-0.097323183	-0.72352252	0.15895389	-0.067012744	-0.16397135	-0.049765238	-0.14456815	-0.80654669	0.20208074	-0.051177467	-0.013491358	0.35312273	-0.20045751	-0.42074352	0.35092134	0.055120236	-0.023824805	0.33181461	-0.079916506	-0.36979172	0.31565622	-0.061016537	-0.13365803	0.72059653	-0.27157305	-0.29954887	0.72249444	0.088330911	-0.11286478	0.81741293	-0.18631777	-0.18810778	0.80499678	0.039556626	-0.34051433	0.83072733	-0.14056436	-0.26864877	1.2881654	-0.26736841	-0.26670384	1.2865281	0.058430443	-0.35434488	1.3062012	-0.11066171	-0.39288285	0.97691377	-0.3353833	-0.2723254	0.92511586	0.11089371	-0.33260319	0.75358932	-0.40434001	-0.038795981	0.83675845	0.12859225
197	0.784	0.037125993	-0.058583489	-0.12600152	-0.71961445	0.044188519	-0.020893293	-0.091136395	-0.028227511	-0.17947797	-0.75965158	0.18245685	0.0054974425	-0.097546975	-0.0041466512	-0.097117754	-0.71329318	0.16261113	-0.066240554	-0.16394268	-0.049799824	-0.14450107	-0.79419019	0.20874326	-0.051000495	-0.0092892321	0.35234341	-0.20013889	-0.40795967	0.34794424	0.056894211	-0.020708024	0.33104995	-0.079707187	-0.35557086	0.31093374	-0.059143966	-0.12739745	0.72125298	-0.27216521	-0.29176606	0.72019035	0.087982375	-0.10706183	0.8175237	-0.18721693	-0.18111853	0.80391971	0.037968881	-0.33365358	0.82975833	-0.14131977	-0.26170967	1.2878475	-0.26793175	-0.25969005	1.2863511	0.05777308	-0.34742593	1.3060432	-0.11125043	-0.38462136	0.97593488	-0.33562325	-0.26749247	0.92521847	0.11015217	-0.32315871	0.75299838	-0.40517875	-0.035324031	0.83374144	0.12945903
198	0.788	0.037010839	-0.058663165	-0.12612011	-0.71414498	0.047309285	-0.020697741	-0.090801286	-0.028323405	-0.17928872	-0.74873489	0.1875662	0.0059306948	-0.097457793	-0.0042698639	-0.096976709	-0.70267571	0.1665021	-0.065549459	-0.16386496	-0.049910987	-0.14455377	-0.78144985	0.21531036	-0.050848258	-0.0054924972	0.3515334	-0.19993991	-0.39501912	0.34505164	0.058667597	-0.01768705	0.3304169	-0.079604246	-0.34110034	0.30637678	-0.057337411	-0.1213287	0.72190958	-0.27274853	-0.28414967	0.71803422	0.087631972	-0.1013763	0.81772187	-0.18808351	-0.17438548	0.80299945	0.036504975	-0.32741842	0.82906872	-0.14173206	-0.25471072	1.2876415	-0.26848229	-0.25273995	1.2862746	0.057131941	-0.34051812	1.306009	-0.11186457	-0.37633289	0.97505175	-0.33600166	-0.26280228	0.92550009	0.10945655	-0.31368746	0.75253629	-0.40590191	-0.032016512	0.83074717	0.13031778
199	0.792	0.036891424	-0.058730341	-0.12620823	-0.7079303	0.050814341	-0.020234853	-0.09048466	-0.028409073	-0.17916491	-0.73718064	0.19282456	0.0064147712	-0.097421346	-0.0044012667	-0.096898558	-0.69165517	0.17057907	-0.064975006	-0.16377683	-0.05006004	-0.14469403	-0.76852309	0.22175926	-0.050648165	-0.0020758303	0.35069596	-0.1998557	-0.38195306	0.34233776	0.060447337	-0.014771474	0.32989332	-0.079569631	-0.32644521	0.30214957	-0.055665874	-0.11545951	0.72253401	-0.27334679	-0.27674807	0.71607711	0.087342483	-0.095820551	0.81801423	-0.18892526	-0.16796733	0.80225696	0.035211638	-0.32200535	0.82874383	-0.14155	-0.24764645	1.2875491	-0.26902217	-0.24585691	1.2862968	0.056506897	-0.33362912	1.306097	-0.112503	-0.36796199	0.97425339	-0.33663351	-0.25822051	0.92590132	0.10878327	-0.30418768	0.75219486	-0.40652174	-0.028873511	0.82778583	0.13117136
200	0.796	0.036788793	-0.058780434	-0.12624096	-0.70077847	0.054616578	-0.019431932	-0.090223278	-0.028517583	-0.17911938	-0.7249489	0.19823518	0.0069683133	-0.09739006	-0.0045188583	-0.096896913	-0.68022633	0.17477474	-0.064539442	-0.16379096	-0.050128993	-0.14487472	-0.75544736	0.22804636	-0.050442678	0.00096627161	0.3498348	-0.19987087	-0.36876224	0.33983626	0.062191762	-0.011961894	0.3294504	-0.079561446	-0.31174211	0.29845672	-0.054151015	-0.1098006	0.72311179	-0.27397352	-0.26962059	0.71436369	0.087187249	-0.090390934	0.81839775	-0.18972885	-0.16187991	0.80173846	0.034117806	-0.31728293	0.82873066	-0.14082605	-0.24052159	1.2875704	-0.26954938	-0.23903946	1.2864126	0.055893019	-0.32676657	1.3063062	-0.11316685	-0.35952106	0.9735553	-0.33738932	-0.25370106	0.92638846	0.1081215	-0.29460849	0.75197052	-0.40706984	-0.025900673	0.82486971	0.13202443
201	0.8	0.036695165	-0.058814931	-0.12623862	-0.6925303	0.058592505	-0.018249234	-0.09002602	-0.028661506	-0.17913689	-0.71213158	0.20376251	0.0075187766	-0.097343315	-0.0046079213	-0.096969411	-0.66839035	0.17902616	-0.064241846	-0.16395692	-0.050056804	-0.14506632	-0.74220827	0.23411672	-0.050294213	0.003631047	0.34896187	-0.19996906	-0.35546437	0.33757705	0.063825809	-0.0092983331	0.32905507	-0.079596393	-0.29711281	0.2954772	-0.052773019	-0.10436643	0.72364307	-0.27462465	-0.26279482	0.7129285	0.08719703	-0.085053508	0.81886338	-0.19046869	-0.15610308	0.80150955	0.033234463	-0.31289205	0.82889506	-0.13981693	-0.23334161	1.2877037	-0.27005601	-0.23229889	1.2866226	0.055294685	-0.31993291	1.3066418	-0.11385796	-0.35112428	0.9729943	-0.33793238	-0.24922961	0.92697653	0.10748193	-0.28489627	0.75187265	-0.40757776	-0.023102726	0.82201107	0.13288134
202	0.804	0.036598284	-0.058837927	-0.12622684	-0.68315038	0.062590627	-0.01672202	-0.089875333	-0.028823875	-0.17918135	-0.69897193	0.20928963	0.0079151398	-0.097313177	-0.004684474	-0.097072362	-0.65615563	0.18329204	-0.06407543	-0.16415723	-0.049943349	-0.14527218	-0.72880149	0.23991641	-0.050254636	0.0059445052	0.34810818	-0.20014576	-0.34211066	0.33561371	0.065258977	-0.0068323758	0.32866859	-0.079710287	-0.28259086	0.29328852	-0.051501911	-0.099167063	0.72413461	-0.27528719	-0.25621607	0.71178923	0.087282545	-0.079774944	0.81940058	-0.19113486	-0.15059439	0.80161963	0.032554294	-0.30853866	0.8291299	-0.13876714	-0.22611265	1.2879437	-0.27053136	-0.22565696	1.2869299	0.054723279	-0.31312548	1.3071147	-0.11457303	-0.3428629	0.97258672	-0.3380878	-0.24485252	0.92772092	0.10690134	-0.27502576	0.75192079	-0.40806892	-0.020481217	0.81922102	0.13374923
203	0.808	0.036494408	-0.058853078	-0.12621938	-0.67274263	0.066522232	-0.014950238	-0.089755093	-0.028981699	-0.17922411	-0.68565947	0.21467336	0.0080627357	-0.097325143	-0.0047756954	-0.097149492	-0.64353503	0.18753196	-0.064034343	-0.16422554	-0.049936232	-0.1455108	-0.71524151	0.24540932	-0.050376884	0.007954263	0.34731115	-0.20039605	-0.32874233	0.33398716	0.066445966	-0.0045767055	0.32825707	-0.079897719	-0.268175	0.29185263	-0.05034738	-0.094204902	0.72459602	-0.27594954	-0.24974409	0.71096237	0.087206274	-0.074567912	0.81999086	-0.19175462	-0.14530648	0.80207027	0.032057018	-0.30413415	0.82940933	-0.13782152	-0.21884143	1.2882845	-0.2709742	-0.2191207	1.2873318	0.054180029	-0.30634161	1.3077337	-0.11530432	-0.33470339	0.97231267	-0.33802408	-0.2406007	0.92866632	0.10639558	-0.26499912	0.75213157	-0.40855671	-0.018029247	0.81650893	0.13463923
204	0.812	0.036386679	-0.05886235	-0.12622187	-0.66145888	0.070439963	-0.013028429	-0.089660697	-0.02911804	-0.17925306	-0.67222871	0.21982182	0.0079692897	-0.097344493	-0.0048898564	-0.097164635	-0.63053909	0.19168405	-0.064115243	-0.16409846	-0.050087941	-0.14577861	-0.70155171	0.25058555	-0.050713326	0.0096772267	0.34658552	-0.20069205	-0.31534063	0.3326918	0.067430369	-0.002496817	0.3278167	-0.080118725	-0.25390023	0.29105456	-0.049369124	-0.089476862	0.72504007	-0.27660351	-0.24325889	0.71048331	0.086714848	-0.069481407	0.82060913	-0.19237369	-0.14020279	0.80281697	0.031717088	-0.29968358	0.82975437	-0.13707159	-0.21153643	1.288726	-0.27139185	-0.21268005	1.2878239	0.053656971	-0.29958375	1.3084969	-0.11604581	-0.32656801	0.97214507	-0.33800775	-0.23635838	0.92976222	0.10589084	-0.25483897	0.75250934	-0.40904168	-0.015719744	0.81387832	0.13556234
